# xmcd
#
# Track frame offsets:
#       150
#       21912
#       43952
#       58500
#       75905
#       90415
#       110915
#       125542
#       139047
#       158845
#       172945
#       187420
#
# Disc length: 2791 seconds
#
# Revision: 0
# Processed by: cddbd v1.5.2PL0 Copyright (c) Steve Scherf et al.
# Submitted via: WaveLab 4.01
#
DISCID=9f0ae50c
DTITLE=Cowboy Junkies - Black Eyed man
DYEAR=1992
DGENRE=Alternatives
TTITLE0=Southern Rain
TTITLE1=Oregon Hill
TTITLE2=This Street, That Man, This Life
TTITLE3=A Horse in the Country
TTITLE4=If You Were the Woman and I Was the Man
TTITLE5=Murder, Tonight, In the Trailer Park
TTITLE6=Black Eyed Man
TTITLE7=Winter's Song
TTITLE8=The Last Spike
TTITLE9=Cowboy Junkies Lament
TTITLE10=Towne's Blues
TTITLE11=To Live Is to Fly
EXTD=
EXTT0=
EXTT1=
EXTT2=
EXTT3=
EXTT4=
EXTT5=
EXTT6=
EXTT7=
EXTT8=
EXTT9=
EXTT10=
EXTT11=
PLAYORDER=
